# xmcd
# Track frame offsets:
# 225
# 13492
# 26084
# 39900
# 52257
# 66964
# 79950
# 93783
# 108277
# 121861
# 136455
# 150637
# 164891
# 179370
# 193920
#
# Disc length: 2775 seconds
# Revision: 0
# Processed by: cddbd v1.5.1PL0 Copyright (c) Steve Scherf et al.
# Submitted via: VisiTrax 2.9.9.202 - For more info visit www.synapsa.com
#
DISCID=d60ad40f
DTITLE=Billie Holliday - That Old Devil Called Love Again
DYEAR=1900
DGENRE=
TTITLE0=That Old Devil Called Love Again
TTITLE1=Big Stuff
TTITLE2=All Of Me
TTITLE3=You Better Go Now
TTITLE4=I'll Look Around
TTITLE5=Guilty
TTITLE6=The Blues Are Brewin'
TTITLE7=Baby I Don't Cry Over You
TTITLE8=No Greater Love (There Is)
TTITLE9=Easy Living
TTITLE10=No Good Man
TTITLE11=Good Morning Heartache
TTITLE12=Deep Song
TTITLE13=What Is This Thing Called Love
TTITLE14=Solitude
EXTD=ACD CD 154.947
EXTT0=
EXTT1=
EXTT2=
EXTT3=
EXTT4=
EXTT5=
EXTT6=
EXTT7=
EXTT8=
EXTT9=
EXTT10=
EXTT11=
EXTT12=
EXTT13=
EXTT14=
PLAYORDER=
